<svg width="180" height="169" viewBox="0 0 180 169" fill="none" xmlns="http://www.w3.org/2000/svg">
<path d="M153.557 84.3L121.652 136.223L57.7571 136.222L25.8098 84.2314L57.715 32.308L121.609 32.3076L153.557 84.3Z" fill="white" stroke="black" stroke-width="3"/>
<path d="M67.2843 94.7891C69.7302 99.9901 63.8858 106.038 54.9261 104.586" stroke="black"/>
<rect x="55.4261" y="70.2514" width="71.6043" height="28.0291" rx="2.5" fill="white" stroke="black"/>
<rect x="57.7433" y="92.0233" width="66.97" height="2.62864" rx="1.31432" fill="white" stroke="black"/>
<path d="M67.2843 94.7891C69.7302 99.9901 63.8858 106.038 54.9261 104.586" stroke="black"/>
<path d="M114.536 95.0704C111.925 99.9694 118.164 105.666 127.728 104.299" stroke="black"/>
<path d="M78.4839 94.7891C79.2563 96.2405 77.7115 106.401 71.1462 109.666" stroke="black"/>
<path d="M101.795 95.0704C100.975 96.4865 102.615 106.399 109.585 109.585" stroke="black"/>
<path d="M119.807 84.766C121.267 84.7661 122.396 85.8712 122.396 87.1693C122.395 88.4672 121.266 89.5715 119.807 89.5717C118.347 89.5717 117.217 88.4673 117.217 87.1693C117.217 85.8711 118.347 84.766 119.807 84.766Z" fill="white" stroke="black"/>
<path d="M62.2637 75.7491C62.3662 76.0871 62.7069 76.294 63.0518 76.2335C62.8729 76.4776 62.8724 76.8134 63.0508 77.0577C62.7068 76.9978 62.3667 77.2042 62.2637 77.5411C62.1607 77.2039 61.8201 76.9972 61.4756 77.0577C61.6548 76.8129 61.6546 76.4769 61.4747 76.2325C61.82 76.2938 62.1611 76.0875 62.2637 75.7491Z" fill="white" stroke="black"/>
</svg>
